<?xml version="1.0" standalone="no"?>
<!DOCTYPE svg PUBLIC "-//W3C//DTD SVG 20010904//EN"
 "http://www.w3.org/TR/2001/REC-SVG-20010904/DTD/svg10.dtd">
<svg version="1.0" xmlns="http://www.w3.org/2000/svg"
 width="636.000000pt" height="638.000000pt" viewBox="0 0 636.000000 638.000000"
 preserveAspectRatio="xMidYMid meet">
<metadata>
Created by potrace 1.10, written by Peter Selinger 2001-2011
</metadata>
<g transform="translate(0.000000,638.000000) scale(0.100000,-0.100000)"
fill="#9900ff" stroke="none">
<path d="M1342 6260 c-46 -28 -85 -50 -87 -50 -2 0 -49 -27 -105 -60 -56 -33
-103 -60 -105 -60 -2 0 -26 -14 -54 -31 l-51 -32 0 -112 0 -111 94 -92 c104
-102 130 -113 161 -64 68 107 169 150 276 118 112 -32 173 -114 173 -231 0
-106 -38 -167 -133 -215 -36 -18 -57 -21 -116 -18 -85 4 -138 33 -187 104 -31
43 -34 44 -85 44 -59 0 -69 7 -194 133 -37 37 -70 67 -74 67 -6 0 -133 -107
-203 -172 l-43 -40 90 -93 91 -92 0 -171 c0 -197 7 -186 -105 -180 l-60 3 -3
142 -3 143 -70 70 -70 70 -39 -32 -40 -33 0 -332 0 -333 170 0 170 0 67 64 67
63 -13 55 c-19 78 -1 145 57 209 55 62 109 83 196 77 79 -5 134 -38 184 -112
28 -43 32 -56 32 -116 0 -82 -17 -125 -66 -173 -67 -65 -140 -85 -236 -64 -35
7 -38 6 -119 -74 -45 -44 -93 -85 -107 -90 -13 -5 -125 -9 -247 -9 l-222 1
-121 -91 -121 -92 -3 -116 c-2 -64 -1 -225 0 -357 l4 -240 41 -33 c23 -19 74
-62 112 -96 124 -111 237 -210 308 -270 l69 -59 59 59 60 59 179 3 180 3 17
27 c28 46 66 83 105 103 50 26 158 26 213 0 143 -66 180 -255 73 -375 -68 -78
-183 -101 -279 -57 -49 22 -102 74 -114 110 -6 20 -14 21 -154 21 l-147 0 -52
-53 -52 -53 0 -242 0 -243 46 -62 c25 -34 99 -137 165 -230 l121 -167 179 0
179 0 0 162 0 162 -66 67 -67 67 53 56 c29 31 58 56 64 56 14 0 160 -147 175
-177 7 -14 11 -91 11 -207 l0 -186 114 0 113 0 60 47 c32 27 106 88 165 137
l106 89 -46 36 c-26 20 -81 62 -123 93 -42 32 -79 65 -83 73 -3 9 -6 127 -6
261 l0 244 85 0 85 0 0 -213 0 -213 109 -82 c60 -45 113 -82 118 -82 5 0 54
34 108 75 55 41 103 75 107 75 4 0 9 98 10 218 l3 217 83 3 82 3 0 -254 0
-253 -27 -26 c-16 -13 -72 -58 -125 -98 -54 -40 -98 -75 -98 -79 0 -3 16 -17
34 -31 43 -32 171 -139 255 -212 l66 -58 97 0 97 0 3 210 3 210 92 92 93 93
55 -55 c30 -30 55 -59 55 -64 0 -5 -27 -36 -60 -68 l-60 -58 0 -165 0 -165
173 0 c94 0 177 4 182 8 10 6 277 377 317 440 16 24 18 55 18 255 l0 228 -57
60 -56 59 -143 0 -143 0 -15 -27 c-54 -104 -192 -153 -304 -108 -78 32 -152
140 -152 223 0 78 74 188 145 218 47 19 158 18 198 -2 41 -21 95 -71 113 -106
l15 -28 175 0 176 0 64 -61 c58 -56 65 -61 83 -48 10 8 92 79 182 158 90 79
203 178 251 220 l87 76 0 350 1 350 -124 92 -124 92 -222 1 c-122 1 -234 6
-249 11 -14 6 -62 46 -107 90 l-80 80 -53 -12 c-195 -42 -352 155 -267 337 41
88 118 134 225 134 57 0 130 -31 168 -72 53 -57 78 -167 53 -234 -10 -26 -7
-32 57 -96 l68 -68 170 2 170 3 3 325 2 326 -40 39 -40 39 -70 -69 -70 -69 0
-143 c0 -164 5 -157 -105 -151 l-60 3 -3 179 -2 178 87 90 88 90 -35 30 c-74
65 -97 85 -153 132 l-58 49 -99 -98 -99 -99 -66 -4 c-50 -3 -68 -9 -72 -21
-27 -76 -118 -131 -218 -131 -79 0 -125 21 -178 79 -138 153 -29 396 178 395
91 0 145 -30 209 -116 18 -24 37 -38 50 -38 14 0 54 33 114 93 l93 93 -3 114
-3 114 -50 29 c-27 16 -135 78 -239 138 l-189 109 -243 0 -243 0 -58 -71 c-32
-39 -67 -83 -78 -98 -131 -174 -178 -221 -223 -221 -25 0 -75 45 -132 120 -19
25 -42 53 -51 63 -10 10 -50 61 -91 113 l-73 94 -245 0 -245 0 -83 -50z m600
-197 c42 -43 81 -88 87 -100 7 -14 11 -105 11 -261 0 -271 6 -252 -85 -252
-91 0 -85 -16 -85 228 l0 216 -67 68 -67 68 54 55 c30 30 59 55 65 55 6 0 45
-35 87 -77z m798 27 c27 -27 50 -55 50 -62 0 -7 -29 -41 -65 -76 l-65 -63 -2
-217 -3 -217 -71 -3 c-53 -2 -74 1 -83 12 -9 10 -11 78 -9 255 l3 241 90 90
c49 49 93 90 97 90 4 0 30 -22 58 -50z m-702 -1097 l3 -153 69 0 70 0 0 155 0
155 85 0 85 0 0 -155 0 -155 70 0 69 0 3 153 3 152 83 3 82 3 0 -156 0 -155
129 0 c114 0 131 -2 154 -21 26 -20 26 -23 29 -152 l3 -132 135 -2 c193 -4
181 2 178 -91 l-3 -77 -150 -3 c-104 -2 -152 -6 -157 -15 -9 -14 -10 -83 -2
-114 6 -23 9 -23 160 -23 l154 0 0 -80 0 -79 -157 -3 -158 -3 -3 -48 c-7 -100
-13 -96 161 -99 l152 -3 3 -72 c2 -62 0 -73 -16 -82 -10 -5 -78 -10 -150 -9
-72 0 -135 -3 -141 -6 -7 -5 -11 -54 -11 -136 0 -127 0 -129 -26 -149 -24 -19
-40 -21 -155 -21 l-128 0 -3 -152 -3 -153 -68 -3 c-42 -2 -74 2 -83 9 -11 9
-14 44 -14 155 l0 144 -70 0 -70 0 0 -155 0 -156 -82 3 -83 3 -3 153 -3 152
-69 0 -69 0 -3 -152 -3 -153 -80 0 -80 0 -3 153 -3 152 -120 0 c-124 0 -170
11 -183 45 -3 9 -6 73 -6 141 0 143 19 127 -148 124 -56 -1 -116 1 -132 5
l-30 7 0 79 0 78 153 3 152 3 0 70 0 70 -157 3 -158 3 0 79 0 79 158 3 157 3
0 70 0 70 -153 3 -153 3 3 82 3 82 153 3 152 3 0 130 c0 125 1 131 25 154 23
24 29 25 155 25 l130 0 0 148 c0 82 3 152 7 156 4 4 41 5 83 4 l75 -3 3 -152z
m-1493 -1018 l0 -160 -74 -3 c-53 -2 -77 1 -82 10 -10 15 -12 278 -3 303 5 13
20 15 83 13 l76 -3 0 -160z m3600 0 l0 -160 -80 0 -80 0 -3 150 c-1 82 0 155
3 162 3 10 25 13 82 11 l78 -3 0 -160z m-3196 81 c28 -30 51 -57 51 -60 0 -4
-30 -36 -67 -72 l-68 -65 -2 -112 c-2 -62 -3 -124 -3 -139 l0 -28 -80 0 -80 0
0 176 0 177 87 88 c48 49 92 89 98 89 7 0 35 -24 64 -54z m2799 -30 c44 -46
84 -94 87 -107 3 -13 4 -94 3 -179 l-3 -155 -80 0 -80 0 -3 136 -3 135 -64 64
c-36 36 -65 69 -65 74 0 14 102 116 115 116 6 0 48 -38 93 -84z m-2570 -1361
c2 -32 0 -70 -3 -82 -5 -23 -9 -24 -83 -21 l-77 3 -3 83 -3 83 83 -3 83 -3 3
-60z m2347 -20 l0 -80 -80 0 -80 0 -3 83 -3 83 83 -3 83 -3 0 -80z"/>
<path d="M1730 4130 l0 -540 538 2 537 3 0 535 0 535 -537 3 -538 2 0 -540z
m902 373 l28 -27 0 -231 0 -230 -140 -140 -140 -140 -226 -2 -226 -2 -29 29
-29 28 0 342 0 342 29 29 29 29 338 0 338 0 28 -27z"/>
<path d="M2042 4133 l3 -228 129 -3 130 -3 93 93 93 93 0 137 0 138 -225 0
-225 0 2 -227z"/>
<path d="M1366 5589 c-32 -25 -36 -77 -8 -102 22 -20 83 -22 100 -5 7 7 12 31
12 54 0 33 -5 47 -22 58 -30 21 -50 20 -82 -5z"/>
<path d="M3086 5589 c-32 -25 -36 -77 -8 -102 22 -20 83 -22 100 -5 7 7 12 31
12 54 0 33 -5 47 -22 58 -30 21 -50 20 -82 -5z"/>
<path d="M1046 4884 c-19 -18 -21 -85 -4 -102 17 -17 86 -15 104 2 20 21 18
80 -4 99 -23 21 -76 22 -96 1z"/>
<path d="M3386 4878 c-37 -52 -8 -108 56 -108 60 0 88 57 52 108 -11 16 -25
22 -54 22 -29 0 -43 -6 -54 -22z"/>
<path d="M1277 3162 c-22 -25 -21 -75 1 -95 25 -23 78 -21 102 3 24 24 26 57
4 88 -20 28 -83 31 -107 4z"/>
<path d="M3156 3164 c-22 -21 -20 -77 2 -97 25 -22 75 -21 95 1 21 23 22 76 1
96 -8 9 -31 16 -49 16 -18 0 -41 -7 -49 -16z"/>
</g>
</svg>
